<svg xmlns="http://www.w3.org/2000/svg" width="512" height="512" viewBox="0 0 24 24">
  <!-- Solid Dark Green Background -->
  <rect width="24" height="24" fill="#1B5E20" />
  
  <!-- White Mic Icon -->
  <path fill="#FFFFFF" d="M12,14c1.66,0 3,-1.34 3,-3V5c0,-1.66 -1.34,-3 -3,-3S9,3.34 9,5v6C9,12.66 10.34,14 12,14z" />
  <path fill="#FFFFFF" d="M17,11c0,2.76 -2.24,5 -5,5s-5,-2.24 -5,-5H5c0,3.53 2.61,6.43 6,6.92V21h2v-3.08c3.39,-0.49 6,-3.39 6,-6.92H17z" />
  
  <!-- Gold Gemini Sparkle -->
  <path fill="#FFC107" d="M18,3 C18,4.5 18.5,5.5 19,6 C19.5,6.5 20.5,7 22,7 C20.5,7 19.5,7.5 19,8 C18.5,8.5 18,9.5 18,11 C18,9.5 17.5,8.5 17,8 C16.5,7.5 15.5,7 14,7 C15.5,7 16.5,6.5 17,6 C17.5,5.5 18,4.5 18,3 Z" />
</svg>
